<mxfile host="65bd71144e" modified="2021-02-25T22:02:49.648Z" agent="5.0 (Windows NT 10.0; Win64; x64) AppleWebKit/537.36 (KHTML, like Gecko) Chrome/88.0.4324.182 Safari/537.36" etag="VHAbwBs27yPJoP_mx5-K" version="13.10.0" type="embed">
    <diagram id="3bSj6S4Pl7fqNOQJJIfe" name="Page-1">
        <mxGraphModel dx="1084" dy="637" grid="1" gridSize="10" guides="1" tooltips="1" connect="1" arrows="1" fold="1" page="1" pageScale="1" pageWidth="827" pageHeight="1169" math="0" shadow="0">
            <root>
                <mxCell id="0"/>
                <mxCell id="1" parent="0"/>
                <mxCell id="2" value="Database.js&lt;br&gt;Initializaton" style="shape=umlFrame;whiteSpace=wrap;html=1;width=90;height=40;" parent="1" vertex="1">
                    <mxGeometry x="130" y="110" width="600" height="430" as="geometry"/>
                </mxCell>
                <mxCell id="18" value="loop" style="shape=umlFrame;whiteSpace=wrap;html=1;width=90;height=30;" parent="1" vertex="1">
                    <mxGeometry x="170" y="290" width="530" height="230" as="geometry"/>
                </mxCell>
                <mxCell id="19" value="opt" style="shape=umlFrame;whiteSpace=wrap;html=1;width=90;height=30;" parent="1" vertex="1">
                    <mxGeometry x="180" y="330" width="510" height="180" as="geometry"/>
                </mxCell>
                <mxCell id="3" value=":Database" style="shape=umlLifeline;perimeter=lifelinePerimeter;whiteSpace=wrap;html=1;container=1;collapsible=0;recursiveResize=0;outlineConnect=0;" parent="1" vertex="1">
                    <mxGeometry x="230" y="115" width="100" height="415" as="geometry"/>
                </mxCell>
                <mxCell id="9" value="" style="html=1;points=[];perimeter=orthogonalPerimeter;" parent="3" vertex="1">
                    <mxGeometry x="45" y="62" width="10" height="298" as="geometry"/>
                </mxCell>
                <mxCell id="5" value=":Storage" style="shape=umlLifeline;perimeter=lifelinePerimeter;whiteSpace=wrap;html=1;container=1;collapsible=0;recursiveResize=0;outlineConnect=0;" parent="1" vertex="1">
                    <mxGeometry x="400" y="115" width="100" height="415" as="geometry"/>
                </mxCell>
                <mxCell id="12" value="" style="html=1;points=[];perimeter=orthogonalPerimeter;" parent="5" vertex="1">
                    <mxGeometry x="45" y="85" width="10" height="80" as="geometry"/>
                </mxCell>
                <mxCell id="21" value="" style="html=1;points=[];perimeter=orthogonalPerimeter;" parent="5" vertex="1">
                    <mxGeometry x="45" y="225" width="10" height="80" as="geometry"/>
                </mxCell>
                <mxCell id="6" value=":Backup" style="shape=umlLifeline;perimeter=lifelinePerimeter;whiteSpace=wrap;html=1;container=1;collapsible=0;recursiveResize=0;outlineConnect=0;" parent="1" vertex="1">
                    <mxGeometry x="590" y="115" width="100" height="415" as="geometry"/>
                </mxCell>
                <mxCell id="15" value="" style="html=1;points=[];perimeter=orthogonalPerimeter;" parent="6" vertex="1">
                    <mxGeometry x="45" y="62" width="10" height="80" as="geometry"/>
                </mxCell>
                <mxCell id="26" value="" style="html=1;points=[];perimeter=orthogonalPerimeter;" parent="6" vertex="1">
                    <mxGeometry x="45" y="315" width="10" height="45" as="geometry"/>
                </mxCell>
                <mxCell id="10" value="Database creation" style="endArrow=classic;html=1;entryX=0.117;entryY=-0.003;entryDx=0;entryDy=0;entryPerimeter=0;exitX=-0.004;exitY=0.19;exitDx=0;exitDy=0;exitPerimeter=0;" parent="1" edge="1">
                    <mxGeometry x="-0.0261" y="9" width="50" height="50" relative="1" as="geometry">
                        <mxPoint x="127.59999999999991" y="174.89999999999998" as="sourcePoint"/>
                        <mxPoint x="276.1700000000001" y="175.80499999999995" as="targetPoint"/>
                        <mxPoint as="offset"/>
                    </mxGeometry>
                </mxCell>
                <mxCell id="13" value="Storage request index" style="html=1;verticalAlign=bottom;endArrow=block;entryX=0;entryY=0;" parent="1" source="9" target="12" edge="1">
                    <mxGeometry relative="1" as="geometry">
                        <mxPoint x="375" y="190" as="sourcePoint"/>
                    </mxGeometry>
                </mxCell>
                <mxCell id="14" value="index data" style="html=1;verticalAlign=bottom;endArrow=open;dashed=1;endSize=8;exitX=0;exitY=0.95;" parent="1" source="12" target="9" edge="1">
                    <mxGeometry y="-6" relative="1" as="geometry">
                        <mxPoint x="375" y="266" as="targetPoint"/>
                        <mxPoint as="offset"/>
                    </mxGeometry>
                </mxCell>
                <mxCell id="16" value="Backup request index" style="html=1;verticalAlign=bottom;endArrow=block;entryX=0;entryY=0;exitX=0.7;exitY=0.003;exitDx=0;exitDy=0;exitPerimeter=0;" parent="1" source="9" target="15" edge="1">
                    <mxGeometry relative="1" as="geometry">
                        <mxPoint x="565" y="186" as="sourcePoint"/>
                    </mxGeometry>
                </mxCell>
                <mxCell id="17" value="index data" style="html=1;verticalAlign=bottom;endArrow=open;dashed=1;endSize=8;exitX=0;exitY=0.95;" parent="1" source="15" target="9" edge="1">
                    <mxGeometry x="-0.2816" y="-1" relative="1" as="geometry">
                        <mxPoint x="565" y="262" as="targetPoint"/>
                        <mxPoint as="offset"/>
                    </mxGeometry>
                </mxCell>
                <mxCell id="22" value="Request table data" style="html=1;verticalAlign=bottom;endArrow=block;entryX=0;entryY=0;" parent="1" source="9" target="21" edge="1">
                    <mxGeometry x="0.0625" y="-20" relative="1" as="geometry">
                        <mxPoint x="375" y="340" as="sourcePoint"/>
                        <mxPoint as="offset"/>
                    </mxGeometry>
                </mxCell>
                <mxCell id="24" value="" style="html=1;points=[];perimeter=orthogonalPerimeter;" parent="1" vertex="1">
                    <mxGeometry x="445" y="340" width="10" height="80" as="geometry"/>
                </mxCell>
                <mxCell id="25" value="table data" style="html=1;verticalAlign=bottom;endArrow=open;dashed=1;endSize=8;exitX=0;exitY=0.95;entryX=0.95;entryY=0.78;entryDx=0;entryDy=0;entryPerimeter=0;" parent="1" source="24" edge="1">
                    <mxGeometry relative="1" as="geometry">
                        <mxPoint x="284.5" y="417.24" as="targetPoint"/>
                    </mxGeometry>
                </mxCell>
                <mxCell id="27" value="Update table registry" style="html=1;verticalAlign=bottom;endArrow=block;entryX=0;entryY=0;" parent="1" source="9" target="26" edge="1">
                    <mxGeometry x="0.4" relative="1" as="geometry">
                        <mxPoint x="565" y="430" as="sourcePoint"/>
                        <mxPoint as="offset"/>
                    </mxGeometry>
                </mxCell>
            </root>
        </mxGraphModel>
    </diagram>
</mxfile>